<svg id="visual" viewBox="0 0 900 450" width="900" height="450" xmlns="http://www.w3.org/2000/svg" xmlns:xlink="http://www.w3.org/1999/xlink" version="1.1"><rect x="0" y="0" width="900" height="450" fill="#001220"></rect><defs><linearGradient id="grad1_0" x1="50%" y1="0%" x2="100%" y2="100%"><stop offset="10%" stop-color="#001220" stop-opacity="1"></stop><stop offset="90%" stop-color="#001220" stop-opacity="1"></stop></linearGradient></defs><defs><linearGradient id="grad2_0" x1="0%" y1="0%" x2="50%" y2="100%"><stop offset="10%" stop-color="#001220" stop-opacity="1"></stop><stop offset="90%" stop-color="#001220" stop-opacity="1"></stop></linearGradient></defs><g transform="translate(900, 0)"><path d="M0 292.5C-27.6 265.4 -55.2 238.3 -94.9 229.1C-134.6 219.9 -186.4 228.6 -206.8 206.8C-227.3 185.1 -216.4 132.9 -225.4 93.4C-234.5 53.8 -263.5 26.9 -292.5 0L0 0Z" fill="#fa3c42"></path></g><g transform="translate(0, 450)"><path d="M0 -292.5C26 -263.1 52 -233.7 93.4 -225.4C134.8 -217.1 191.5 -230 206.8 -206.8C222.1 -183.7 195.9 -124.7 203.3 -84.2C210.6 -43.7 251.6 -21.9 292.5 0L0 0Z" fill="#fa3c42"></path></g></svg>