<svg id="visual" viewBox="0 0 900 450" width="900" height="450" xmlns="http://www.w3.org/2000/svg" xmlns:xlink="http://www.w3.org/1999/xlink" version="1.1"><path d="M0 42L150 55L300 46L450 15L600 24L750 51L900 60L900 0L750 0L600 0L450 0L300 0L150 0L0 0Z" fill="#c62368"></path><path d="M0 82L150 96L300 64L450 69L600 105L750 69L900 105L900 58L750 49L600 22L450 13L300 44L150 53L0 40Z" fill="#db3b66"></path><path d="M0 168L150 231L300 127L450 208L600 217L750 226L900 163L900 103L750 67L600 103L450 67L300 62L150 94L0 80Z" fill="#ed5263"></path><path d="M0 253L150 285L300 280L450 316L600 307L750 280L900 262L900 161L750 224L600 215L450 206L300 125L150 229L0 166Z" fill="#fc6a61"></path><path d="M0 280L150 298L300 289L450 330L600 352L750 289L900 298L900 260L750 278L600 305L450 314L300 278L150 283L0 251Z" fill="#ff6f61"></path><path d="M0 325L150 325L300 330L450 357L600 384L750 312L900 325L900 296L750 287L600 350L450 328L300 287L150 296L0 278Z" fill="#fc6a61"></path><path d="M0 388L150 388L300 429L450 393L600 415L750 384L900 402L900 323L750 310L600 382L450 355L300 328L150 323L0 323Z" fill="#ed5263"></path><path d="M0 438L150 442L300 438L450 424L600 447L750 420L900 424L900 400L750 382L600 413L450 391L300 427L150 386L0 386Z" fill="#db3b66"></path><path d="M0 451L150 451L300 451L450 451L600 451L750 451L900 451L900 422L750 418L600 445L450 422L300 436L150 440L0 436Z" fill="#c62368"></path></svg>