<svg id="visual" viewBox="0 0 900 450" width="900" height="450" xmlns="http://www.w3.org/2000/svg" xmlns:xlink="http://www.w3.org/1999/xlink" version="1.1"><rect x="0" y="0" width="900" height="450" fill="#001220"></rect><path d="M0 262L21.5 267.3C43 272.7 86 283.3 128.8 292.3C171.7 301.3 214.3 308.7 257.2 306.8C300 305 343 294 385.8 288.7C428.7 283.3 471.3 283.7 514.2 286.2C557 288.7 600 293.3 642.8 296.2C685.7 299 728.3 300 771.2 302.5C814 305 857 309 878.5 311L900 313L900 451L878.5 451C857 451 814 451 771.2 451C728.3 451 685.7 451 642.8 451C600 451 557 451 514.2 451C471.3 451 428.7 451 385.8 451C343 451 300 451 257.2 451C214.3 451 171.7 451 128.8 451C86 451 43 451 21.5 451L0 451Z" fill="#fa7268"></path><path d="M0 338L21.5 337.5C43 337 86 336 128.8 339.3C171.7 342.7 214.3 350.3 257.2 346.7C300 343 343 328 385.8 322C428.7 316 471.3 319 514.2 319.2C557 319.3 600 316.7 642.8 320C685.7 323.3 728.3 332.7 771.2 340.2C814 347.7 857 353.3 878.5 356.2L900 359L900 451L878.5 451C857 451 814 451 771.2 451C728.3 451 685.7 451 642.8 451C600 451 557 451 514.2 451C471.3 451 428.7 451 385.8 451C343 451 300 451 257.2 451C214.3 451 171.7 451 128.8 451C86 451 43 451 21.5 451L0 451Z" fill="#ef5f67"></path><path d="M0 366L21.5 363.2C43 360.3 86 354.7 128.8 349.8C171.7 345 214.3 341 257.2 337.5C300 334 343 331 385.8 337.7C428.7 344.3 471.3 360.7 514.2 367.5C557 374.3 600 371.7 642.8 369.8C685.7 368 728.3 367 771.2 365.3C814 363.7 857 361.3 878.5 360.2L900 359L900 451L878.5 451C857 451 814 451 771.2 451C728.3 451 685.7 451 642.8 451C600 451 557 451 514.2 451C471.3 451 428.7 451 385.8 451C343 451 300 451 257.2 451C214.3 451 171.7 451 128.8 451C86 451 43 451 21.5 451L0 451Z" fill="#e34c67"></path><path d="M0 378L21.5 382C43 386 86 394 128.8 392C171.7 390 214.3 378 257.2 374.8C300 371.7 343 377.3 385.8 379.2C428.7 381 471.3 379 514.2 380.8C557 382.7 600 388.3 642.8 389C685.7 389.7 728.3 385.3 771.2 386C814 386.7 857 392.3 878.5 395.2L900 398L900 451L878.5 451C857 451 814 451 771.2 451C728.3 451 685.7 451 642.8 451C600 451 557 451 514.2 451C471.3 451 428.7 451 385.8 451C343 451 300 451 257.2 451C214.3 451 171.7 451 128.8 451C86 451 43 451 21.5 451L0 451Z" fill="#d53867"></path><path d="M0 417L21.5 413.5C43 410 86 403 128.8 400.7C171.7 398.3 214.3 400.7 257.2 401.5C300 402.3 343 401.7 385.8 404.2C428.7 406.7 471.3 412.3 514.2 416.2C557 420 600 422 642.8 423.7C685.7 425.3 728.3 426.7 771.2 426.2C814 425.7 857 423.3 878.5 422.2L900 421L900 451L878.5 451C857 451 814 451 771.2 451C728.3 451 685.7 451 642.8 451C600 451 557 451 514.2 451C471.3 451 428.7 451 385.8 451C343 451 300 451 257.2 451C214.3 451 171.7 451 128.8 451C86 451 43 451 21.5 451L0 451Z" fill="#c62368"></path></svg>